
<region>
sample=../Samples/perc/room/triangle/Triangle1_Hit_v1_rr1_Far.wav
hivel=63
amp_velcurve_63=1
seq_length=8

<region>
sample=../Samples/perc/room/triangle/Triangle1_Hit_v1_rr2_Far.wav
hivel=63
amp_velcurve_63=1
seq_length=8
seq_position=2

<region>
sample=../Samples/perc/room/triangle/Triangle1_Hit_v1_rr3_Far.wav
hivel=63
amp_velcurve_63=1
seq_length=8
seq_position=3

<region>
sample=../Samples/perc/room/triangle/Triangle1_Hit_v1_rr4_Far.wav
hivel=63
amp_velcurve_63=1
seq_length=8
seq_position=4

<region>
sample=../Samples/perc/room/triangle/Triangle1_Hit_v1_rr5_Far.wav
hivel=63
amp_velcurve_63=1
seq_length=8
seq_position=5

<region>
sample=../Samples/perc/room/triangle/Triangle1_Hit_v1_rr6_Far.wav
hivel=63
amp_velcurve_63=1
seq_length=8
seq_position=6

<region>
sample=../Samples/perc/room/triangle/Triangle1_Hit_v1_rr7_Far.wav
hivel=63
amp_velcurve_63=1
seq_length=8
seq_position=7

<region>
sample=../Samples/perc/room/triangle/Triangle1_Hit_v1_rr8_Far.wav
hivel=63
amp_velcurve_63=1
seq_length=8
seq_position=8

<region>
sample=../Samples/perc/room/triangle/Triangle1_Hit_v2_rr1_Far.wav
lovel=64
seq_length=8

<region>
sample=../Samples/perc/room/triangle/Triangle1_Hit_v2_rr2_Far.wav
lovel=64
seq_length=8
seq_position=2

<region>
sample=../Samples/perc/room/triangle/Triangle1_Hit_v2_rr3_Far.wav
lovel=64
seq_length=8
seq_position=3

<region>
sample=../Samples/perc/room/triangle/Triangle1_Hit_v2_rr4_Far.wav
lovel=64
seq_length=8
seq_position=4

<region>
sample=../Samples/perc/room/triangle/Triangle1_Hit_v2_rr5_Far.wav
lovel=64
seq_length=8
seq_position=5

<region>
sample=../Samples/perc/room/triangle/Triangle1_Hit_v2_rr6_Far.wav
lovel=64
seq_length=8
seq_position=6

<region>
sample=../Samples/perc/room/triangle/Triangle1_Hit_v2_rr7_Far.wav
lovel=64
seq_length=8
seq_position=7

<region>
sample=../Samples/perc/room/triangle/Triangle1_Hit_v2_rr8_Far.wav
lovel=64
seq_length=8
seq_position=8
